<svg height="479pt" viewBox="0 -104 479.91049 479" width="479pt" xmlns="http://www.w3.org/2000/svg" xmlns:xlink="http://www.w3.org/1999/xlink"><linearGradient id="a" gradientUnits="userSpaceOnUse" x1="72.257619" x2="480.233619" y1="-3.480755" y2="356.503245"><stop offset="0" stop-color="#fff200"/><stop offset="1" stop-color="#cd118c"/></linearGradient><path d="m391.90625 96.457031c-19.121094.003907-37.714844 6.28125-52.929688 17.863281l-13.199218-14.527343 31.59375-29.496094.070312-.097656c.449219-.484375.839844-1.023438 1.160156-1.601563.230469-.296875.441407-.609375.632813-.933594.109375-.371093.195313-.746093.253906-1.128906.210938-.621094.34375-1.265625.394531-1.917968 0-.050782 0-.089844 0-.136719-.050781-.386719-.128906-.769531-.234374-1.144531-.046876-.605469-.167969-1.203126-.359376-1.777344-.25-.570313-.574218-1.109375-.960937-1.597656-.171875-.34375-.375-.675782-.597656-.984376 0 0-.082031 0-.113281-.082031-.457032-.414062-.964844-.773437-1.503907-1.070312-.332031-.269531-.683593-.507813-1.054687-.722657-.324219-.089843-.652344-.164062-.984375-.222656-.660157-.226562-1.34375-.367187-2.039063-.421875h-8.128906v-40h48c13.253906 0 24 10.742188 24 24 0 13.253907-10.746094 24-24 24-4.417969 0-8 3.578125-8 8 0 4.417969 3.582031 8 8 8 22.089844 0 40-17.910156 40-40 0-22.09375-17.910156-40-40-40h-56c-4.417969 0-8 3.578125-8 8v48h-116.6875l-40-40h20.6875c4.417969 0 8-3.582031 8-8 0-4.421875-3.582031-8-8-8h-80c-4.417969 0-8 3.578125-8 8 0 4.417969 3.582031 8 8 8h36.6875l40 40h-12.6875c-4.417969 0-8 3.578125-8 8 0 4.417969 3.582031 8 8 8h5.597656l-39.726562 42.558594c-31.753906-24.597656-76.136719-24.554687-107.839844.109375s-42.660156 67.675781-26.625 104.503906c16.035156 36.824219 54.988281 58.105469 94.640625 51.699219s69.921875-38.871094 73.542969-78.871094h28.859375c5.671875 9.863281 16.167969 15.960938 27.550781 16 5.695312-.03125 11.273438-1.597656 16.152344-4.539062l12.136718 12.136719-5.65625 5.65625c-2.082031 2.007812-2.914062 4.984374-2.183593 7.78125.734375 2.796874 2.917969 4.980468 5.714843 5.710937 2.796876.734375 5.769532-.101563 7.78125-2.179687l11.292969-11.304688 11.304688-11.3125c2.078125-2.007812 2.914062-4.980469 2.183593-7.777344-.734374-2.796875-2.917968-4.984375-5.714843-5.714844-2.796875-.734374-5.773438.101563-7.78125 2.179688l-5.664063 5.664062-12.128906-12.132812c5.878906-9.578125 6.09375-21.589844.5625-31.371094l54.167969-50.566406 13.0625 14.398438c-28.015625 30.695312-30.699219 76.820312-6.429688 110.554687 24.265625 33.738281 68.851563 45.859375 106.859375 29.054687 38.011719-16.800781 59.050782-57.933593 50.433594-98.589843-8.617188-40.652344-44.535156-69.714844-86.09375-69.648438zm-249.382812 41.207031c9.410156 10.933594 15.304687 24.453126 16.910156 38.792969h-53.128906zm-54.617188 118.792969c-31.332031.078125-59.117188-20.109375-68.722656-49.933593-9.601563-29.824219 1.183594-62.433594 26.675781-80.648438s59.839844-17.855469 84.941406.890625l-48.734375 52.21875c-.222656.308594-.421875.636719-.601562.976563-.785156 1.390624-1.3125 2.914062-1.558594 4.496093v.125c.050781.644531.179688 1.277344.382812 1.890625.0625.394532.152344.785156.265626 1.167969.183593.3125.390624.617187.613281.902344.316406.597656.710937 1.152343 1.167969 1.648437l.082031.105469c.390625.308594.808593.574219 1.253906.796875.378906.292969.785156.546875 1.210937.761719.957032.394531 1.984376.597656 3.023438.601562h71.527344c-4.109375 36.414063-34.882813 63.949219-71.527344 64zm87.589844-80c-1.714844-18.769531-9.445313-36.484375-22.039063-50.503906l49.929688-53.496094h128.230469l-82.558594 77.078125c-10.074219-6.570312-23.023438-6.785156-33.304688-.542968l-12.136718-12.136719 5.65625-5.65625c3.03125-3.140625 2.988281-8.128907-.097657-11.214844-3.085937-3.085937-8.074219-3.128906-11.214843-.097656l-11.296876 11.304687-11.300781 11.3125c-2.082031 2.007813-2.914062 4.980469-2.183593 7.78125.734374 2.796875 2.917968 4.980469 5.714843 5.710938 2.796875.734375 5.769531-.101563 7.777344-2.179688l5.664063-5.664062 12.128906 12.136718c-2.953125 4.875-4.527344 10.464844-4.558594 16.167969zm56.410156 16c-8.835938 0-16-7.164062-16-16 .019531-1.386719.21875-2.757812.597656-4.089843l9.746094 9.742187 9.742188 9.746094c-1.328126.378906-2.703126.582031-4.085938.601562zm5.65625-21.65625-9.746094-9.746093c1.332032-.378907 2.707032-.582032 4.089844-.597657 4.421875.003907 8.644531 1.855469 11.648438 5.101563v.039062c2.777343 2.933594 4.335937 6.816406 4.351562 10.859375-.019531 1.382813-.222656 2.757813-.601562 4.085938zm154.34375 85.65625c-28.292969.046875-53.980469-16.507812-65.628906-42.289062-11.648438-25.785157-7.085938-56.003907 11.652344-77.199219l48.054687 52.871094c2.976563 3.269531 8.035156 3.507812 11.304687.535156 3.269532-2.972656 3.511719-8.035156.535157-11.304688l-48.054688-52.871093c25.246094-18.269531 59.386719-18.214844 84.570313.140625 25.1875 18.355468 35.695312 50.839844 26.03125 80.46875-9.664063 29.628906-37.300782 49.667968-68.464844 49.648437zm0 0" fill="url(#a)"/></svg>